<svg width="30" height="27" viewBox="0 0 30 27" fill="none" xmlns="http://www.w3.org/2000/svg">
<path d="M18.75 22.5C19.0625 22.5 19.3555 22.5586 19.6289 22.6758C19.9023 22.793 20.1406 22.9531 20.3438 23.1562C20.5469 23.3594 20.707 23.5977 20.8242 23.8711C20.9414 24.1445 21 24.4375 21 24.75C21 25.0625 20.9414 25.3555 20.8242 25.6289C20.707 25.9023 20.5469 26.1406 20.3438 26.3438C20.1406 26.5469 19.9023 26.707 19.6289 26.8242C19.3555 26.9414 19.0625 27 18.75 27C18.4375 27 18.1445 26.9414 17.8711 26.8242C17.5977 26.707 17.3594 26.5469 17.1562 26.3438C16.9531 26.1406 16.793 25.9023 16.6758 25.6289C16.5586 25.3555 16.5 25.0625 16.5 24.75C16.5 24.5078 16.543 24.2578 16.6289 24H10.3711C10.457 24.2578 10.5 24.5078 10.5 24.75C10.5 25.0625 10.4414 25.3555 10.3242 25.6289C10.207 25.9023 10.0469 26.1406 9.84375 26.3438C9.64062 26.5469 9.40234 26.707 9.12891 26.8242C8.85547 26.9414 8.5625 27 8.25 27C7.9375 27 7.64453 26.9414 7.37109 26.8242C7.09766 26.707 6.85938 26.5469 6.65625 26.3438C6.45312 26.1406 6.29297 25.9023 6.17578 25.6289C6.05859 25.3555 6 25.0625 6 24.75C6 24.3203 6.11328 23.9219 6.33984 23.5547C6.56641 23.1875 6.87891 22.9102 7.27734 22.7227L2.21484 7.5H0V6H3.29297L4.28906 9H24L20.5078 19.5H7.79297L8.78906 22.5H18.75ZM4.79297 10.5L7.28906 18H19.418L21.9141 10.5H4.79297ZM9 24.75C9 24.5469 8.92578 24.3711 8.77734 24.2227C8.62891 24.0742 8.45312 24 8.25 24C8.04688 24 7.87109 24.0742 7.72266 24.2227C7.57422 24.3711 7.5 24.5469 7.5 24.75C7.5 24.9531 7.57422 25.1289 7.72266 25.2773C7.87109 25.4258 8.04688 25.5 8.25 25.5C8.45312 25.5 8.62891 25.4258 8.77734 25.2773C8.92578 25.1289 9 24.9531 9 24.75ZM18.75 25.5C18.9531 25.5 19.1289 25.4258 19.2773 25.2773C19.4258 25.1289 19.5 24.9531 19.5 24.75C19.5 24.5469 19.4258 24.3711 19.2773 24.2227C19.1289 24.0742 18.9531 24 18.75 24C18.5469 24 18.3711 24.0742 18.2227 24.2227C18.0742 24.3711 18 24.5469 18 24.75C18 24.9531 18.0742 25.1289 18.2227 25.2773C18.3711 25.4258 18.5469 25.5 18.75 25.5Z" fill="black"/>
<circle cx="23.5" cy="6.5" r="6.5" fill="#3366FF"/>
<path d="M26.249 10H21.5908V9.35059L24.0518 6.61621C24.4163 6.2028 24.667 5.86751 24.8037 5.61035C24.9437 5.34993 25.0137 5.08138 25.0137 4.80469C25.0137 4.43359 24.9014 4.12923 24.6768 3.8916C24.4521 3.65397 24.1527 3.53516 23.7783 3.53516C23.3291 3.53516 22.9792 3.66374 22.7285 3.9209C22.4811 4.1748 22.3574 4.52962 22.3574 4.98535H21.4541C21.4541 4.33105 21.6641 3.80208 22.084 3.39844C22.5072 2.99479 23.0719 2.79297 23.7783 2.79297C24.4391 2.79297 24.9616 2.96712 25.3457 3.31543C25.7298 3.66048 25.9219 4.12109 25.9219 4.69727C25.9219 5.39714 25.4759 6.23047 24.584 7.19727L22.6797 9.2627H26.249V10Z" fill="white"/>
</svg>
