<svg width="85" height="23" viewBox="0 0 85 23" fill="none" xmlns="http://www.w3.org/2000/svg">
<path d="M31.677 4.70386H26.989C26.8338 4.70376 26.6837 4.76002 26.5656 4.8625C26.4476 4.96499 26.3695 5.10695 26.3453 5.26283L24.4493 17.4856C24.4405 17.5423 24.444 17.6003 24.4595 17.6555C24.4749 17.7107 24.5019 17.7619 24.5386 17.8055C24.5754 17.849 24.621 17.884 24.6723 17.908C24.7236 17.9319 24.7794 17.9443 24.8359 17.9442H27.074C27.2293 17.9443 27.3795 17.8879 27.4975 17.7853C27.6155 17.6827 27.6936 17.5405 27.7177 17.3845L28.229 14.0879C28.253 13.932 28.331 13.7899 28.4489 13.6873C28.5668 13.5847 28.7168 13.5283 28.872 13.5282H30.3561C33.4442 13.5282 35.2264 12.0088 35.6919 8.99789C35.9016 7.68061 35.7008 6.64561 35.0941 5.92077C34.4279 5.12483 33.2461 4.70386 31.677 4.70386ZM32.2179 9.16795C31.9615 10.8783 30.6762 10.8783 29.4334 10.8783H28.726L29.2223 7.6841C29.2368 7.59065 29.2837 7.50554 29.3544 7.44408C29.4252 7.38263 29.5152 7.34886 29.6082 7.34886H29.9325C30.779 7.34886 31.5776 7.34886 31.9903 7.83952C32.2364 8.13225 32.3118 8.56716 32.2179 9.16795ZM45.6904 9.11289H43.4454C43.3523 9.11289 43.2623 9.14666 43.1916 9.20811C43.1208 9.26957 43.074 9.35468 43.0595 9.44813L42.9601 10.0866L42.8031 9.85516C42.3171 9.13798 41.2333 8.89822 40.1516 8.89822C37.6709 8.89822 35.552 10.8086 35.1394 13.4885C34.9248 14.8253 35.2299 16.1035 35.9757 16.9949C36.6598 17.8146 37.6387 18.1561 38.8033 18.1561C40.8022 18.1561 41.9106 16.8492 41.9106 16.8492L41.8105 17.4835C41.8016 17.5402 41.8049 17.5982 41.8201 17.6535C41.8354 17.7088 41.8622 17.7601 41.8989 17.8038C41.9355 17.8475 41.981 17.8826 42.0322 17.9068C42.0835 17.9309 42.1393 17.9434 42.1958 17.9435H44.2179C44.3732 17.9436 44.5234 17.8872 44.6415 17.7846C44.7595 17.682 44.8376 17.5398 44.8616 17.3838L46.0749 9.57149C46.0838 9.51491 46.0806 9.45704 46.0654 9.40186C46.0501 9.34669 46.0233 9.29553 45.9868 9.25192C45.9502 9.20832 45.9048 9.1733 45.8536 9.1493C45.8024 9.12529 45.7467 9.11287 45.6904 9.11289ZM42.5611 13.5554C42.3445 14.8594 41.3266 15.7348 40.0283 15.7348C39.3764 15.7348 38.8554 15.5222 38.5209 15.1194C38.1891 14.7193 38.063 14.1499 38.1685 13.5156C38.3708 12.2228 39.4058 11.3188 40.6843 11.3188C41.3218 11.3188 41.84 11.5342 42.1814 11.9405C42.5234 12.351 42.6591 12.9239 42.5611 13.5554ZM57.6466 9.11289H55.3906C55.2842 9.11306 55.1795 9.13962 55.0855 9.19027C54.9915 9.24091 54.911 9.31412 54.8512 9.40352L51.7397 14.0635L50.4209 9.58543C50.3804 9.44885 50.2977 9.32916 50.1852 9.24405C50.0726 9.15895 49.936 9.11296 49.7957 9.11289H47.5789C47.5166 9.11272 47.4553 9.12767 47.3999 9.15648C47.3445 9.1853 47.2966 9.22715 47.2604 9.27856C47.2241 9.32997 47.2004 9.38944 47.1913 9.45203C47.1822 9.51462 47.1879 9.57852 47.208 9.6384L49.6929 17.0528L47.3568 20.4059C47.3152 20.4653 47.2906 20.5353 47.2856 20.608C47.2806 20.6807 47.2953 20.7535 47.3282 20.8182C47.3611 20.883 47.4109 20.9373 47.4722 20.9752C47.5335 21.0132 47.6038 21.0332 47.6755 21.0332H49.9287C50.0339 21.0333 50.1376 21.0075 50.2308 20.958C50.3241 20.9085 50.4041 20.8367 50.4641 20.7488L57.9674 9.73668C58.008 9.6771 58.0319 9.60734 58.0363 9.53496C58.0408 9.46258 58.0257 9.39034 57.9926 9.32607C57.9596 9.26181 57.9099 9.20797 57.8489 9.17039C57.7878 9.13281 57.7179 9.11292 57.6466 9.11289Z" fill="#253B80"/>
<path d="M65.1156 4.70385H60.4269C60.2718 4.70392 60.1218 4.76025 60.004 4.86272C59.8861 4.96519 59.8081 5.10707 59.7839 5.26282L57.8879 17.4856C57.879 17.5422 57.8824 17.6001 57.8977 17.6553C57.913 17.7104 57.9399 17.7616 57.9765 17.8052C58.0131 17.8488 58.0586 17.8838 58.1098 17.9078C58.161 17.9318 58.2167 17.9442 58.2731 17.9442H60.6791C60.7877 17.944 60.8926 17.9045 60.9751 17.8327C61.0575 17.7609 61.112 17.6615 61.1288 17.5525L61.6669 14.0879C61.6909 13.932 61.7689 13.7899 61.8868 13.6873C62.0047 13.5847 62.1547 13.5283 62.3099 13.5282H63.7933C66.8821 13.5282 68.6637 12.0088 69.1298 8.99788C69.3402 7.68061 69.138 6.64561 68.5314 5.92076C67.8658 5.12482 66.6847 4.70385 65.1156 4.70385ZM65.6564 9.16794C65.4008 10.8783 64.1155 10.8783 62.872 10.8783H62.1653L62.6623 7.68409C62.6765 7.59064 62.7232 7.50546 62.7938 7.44397C62.8645 7.38248 62.9545 7.34874 63.0475 7.34885H63.3717C64.2176 7.34885 65.0169 7.34885 65.4295 7.83952C65.6756 8.13225 65.7504 8.56716 65.6564 9.16794ZM79.1283 9.11288H76.8847C76.7916 9.11262 76.7016 9.14631 76.6309 9.20783C76.5602 9.26935 76.5135 9.35461 76.4994 9.44812L76.4 10.0865L76.2424 9.85516C75.7564 9.13797 74.6733 8.89822 73.5916 8.89822C71.1108 8.89822 68.9927 10.8086 68.58 13.4885C68.3662 14.8252 68.6698 16.1035 69.4156 16.9949C70.1011 17.8146 71.0786 18.1561 72.2433 18.1561C74.2421 18.1561 75.3506 16.8492 75.3506 16.8492L75.2505 17.4835C75.2415 17.5403 75.2449 17.5984 75.2602 17.6538C75.2755 17.7092 75.3025 17.7606 75.3393 17.8043C75.376 17.8481 75.4217 17.8832 75.4731 17.9072C75.5246 17.9312 75.5805 17.9436 75.6371 17.9435H77.6586C77.8138 17.9434 77.9638 17.887 78.0817 17.7844C78.1996 17.6817 78.2776 17.5397 78.3016 17.3838L79.5156 9.57149C79.5242 9.51473 79.5206 9.45675 79.5051 9.40153C79.4896 9.34631 79.4625 9.29516 79.4257 9.25159C79.3889 9.20802 79.3432 9.17307 79.2919 9.14912C79.2406 9.12518 79.1847 9.11282 79.1283 9.11288ZM75.999 13.5554C75.7838 14.8594 74.7645 15.7348 73.4662 15.7348C72.8156 15.7348 72.2933 15.5222 71.9588 15.1194C71.627 14.7193 71.5023 14.1499 71.6064 13.5156C71.81 12.2228 72.8437 11.3188 74.1222 11.3188C74.7597 11.3188 75.2779 11.5342 75.6193 11.9405C75.9627 12.351 76.0984 12.9239 75.999 13.5554ZM81.7749 5.03909L79.8508 17.4856C79.8419 17.5422 79.8453 17.6001 79.8606 17.6553C79.8759 17.7104 79.9028 17.7616 79.9394 17.8052C79.976 17.8488 80.0215 17.8838 80.0727 17.9078C80.1239 17.9318 80.1796 17.9442 80.236 17.9442H82.1704C82.4919 17.9442 82.7648 17.7072 82.8141 17.3845L84.7115 5.16246C84.7203 5.1058 84.717 5.04788 84.7017 4.99268C84.6864 4.93747 84.6595 4.88628 84.6229 4.84264C84.5863 4.799 84.5408 4.76393 84.4896 4.73986C84.4384 4.71578 84.3827 4.70326 84.3263 4.70316H82.1602C82.0672 4.70349 81.9773 4.73748 81.9067 4.79904C81.8361 4.86059 81.7894 4.9457 81.7749 5.03909Z" fill="#179BD7"/>
<path d="M4.98072 20.3195L5.33923 18.0041L4.54064 17.9853H0.727295L3.37738 0.90049C3.38527 0.848288 3.41134 0.800707 3.45085 0.76642C3.49036 0.732133 3.54067 0.713424 3.59262 0.713702H10.0225C12.1571 0.713702 13.6302 1.16534 14.3993 2.05676C14.7598 2.47494 14.9895 2.91195 15.1005 3.39285C15.2171 3.89746 15.2191 4.50034 15.1053 5.23564L15.0971 5.28931V5.76046L15.4577 5.96816C15.7329 6.10995 15.9803 6.30175 16.1877 6.5341C16.4962 6.89164 16.6956 7.34607 16.78 7.88482C16.867 8.43892 16.8382 9.09825 16.6956 9.8447C16.5311 10.7034 16.2652 11.4512 15.906 12.0632C15.589 12.6114 15.1629 13.0862 14.655 13.4571C14.1779 13.8014 13.611 14.0628 12.97 14.23C12.349 14.3945 11.6409 14.4775 10.8642 14.4775H10.3638C10.006 14.4775 9.65846 14.6085 9.38564 14.8434C9.11321 15.0808 8.93248 15.4087 8.87564 15.7689L8.83794 15.9773L8.20455 20.0581L8.17576 20.2079C8.16822 20.2553 8.1552 20.279 8.136 20.2951C8.11741 20.3105 8.09421 20.3191 8.0702 20.3195H4.98072Z" fill="#253B80"/>
<path d="M15.799 5.34367C15.7798 5.46843 15.7578 5.59598 15.7332 5.72701C14.8852 10.1535 11.9842 11.6826 8.2792 11.6826H6.39275C5.93965 11.6826 5.55783 12.0172 5.48723 12.4716L4.52138 18.6997L4.24787 20.4651C4.23698 20.5352 4.24114 20.6068 4.26006 20.675C4.27899 20.7432 4.31224 20.8065 4.35752 20.8604C4.4028 20.9143 4.45903 20.9576 4.52234 20.9873C4.58566 21.017 4.65455 21.0324 4.72428 21.0325H8.07013C8.46634 21.0325 8.80291 20.7397 8.86529 20.3425L8.89819 20.1696L9.52815 16.1049L9.5686 15.8819C9.63029 15.4832 9.96755 15.1905 10.3638 15.1905H10.8642C14.1058 15.1905 16.6435 13.8523 17.3852 9.97992C17.695 8.36225 17.5346 7.01152 16.7148 6.06155C16.4549 5.76768 16.1446 5.52442 15.799 5.34367Z" fill="#179BD7"/>
<path d="M14.912 4.98403C14.6413 4.9044 14.3658 4.84225 14.0874 4.79794C13.5372 4.71197 12.9811 4.67071 12.4244 4.67458H7.38472C7.19293 4.67443 7.00741 4.74405 6.8617 4.87085C6.71599 4.99766 6.6197 5.17328 6.59025 5.36597L5.51815 12.2702L5.4873 12.4716C5.5207 12.2518 5.63037 12.0514 5.79646 11.9067C5.96255 11.762 6.1741 11.6825 6.39283 11.6826H8.27928C11.9843 11.6826 14.8853 10.1528 15.7332 5.727C15.7586 5.59597 15.7798 5.46843 15.799 5.34367C15.5753 5.22437 15.3421 5.12435 15.1019 5.04467C15.0389 5.02343 14.9756 5.00321 14.912 4.98403Z" fill="#222D65"/>
<path d="M6.59018 5.36597C6.61939 5.17322 6.71562 4.99752 6.8614 4.87078C7.00719 4.74404 7.19285 4.67467 7.38466 4.67527H12.4243C13.0214 4.67527 13.5787 4.715 14.0873 4.79864C14.4315 4.85364 14.7709 4.9359 15.1025 5.04467C15.3527 5.129 15.5851 5.22867 15.7997 5.34367C16.0519 3.70788 15.7976 2.59412 14.9277 1.58561C13.9687 0.475333 12.2379 0 10.0231 0H3.59325C3.14083 0 2.7549 0.334545 2.68498 0.789667L0.00679295 18.0501C-0.00568159 18.1303 -0.000935456 18.2122 0.0207049 18.2903C0.0423452 18.3684 0.0803662 18.4408 0.132152 18.5025C0.183939 18.5642 0.248261 18.6138 0.320695 18.6479C0.393129 18.6819 0.471956 18.6996 0.551753 18.6997H4.52139L5.51808 12.2702L6.59018 5.36597Z" fill="#253B80"/>
</svg>
